<svg width="78" height="78" viewBox="0 0 78 78" fill="none" xmlns="http://www.w3.org/2000/svg">
<path d="M75.4308 28.2609C73.6838 26.7194 71.5257 25.7945 69.0593 25.7945H54.2609C53.1304 25.7945 52.1028 24.8696 52.1028 23.6364V8.83794C52.1028 6.37154 51.0751 4.21344 49.5336 2.56917C47.8893 0.924901 45.7312 0 43.2648 0H34.5296C32.0632 0 29.9051 1.02767 28.2609 2.56917C26.6166 4.21344 25.6917 6.37154 25.6917 8.83794V23.6364C25.6917 24.7668 24.7668 25.7945 23.5336 25.7945H8.83794C6.37154 25.7945 4.21344 26.8221 2.56917 28.3636C0.924901 30.0079 0 32.166 0 34.6324V43.3676C0 45.834 1.02767 47.9921 2.56917 49.6364C4.21344 51.2806 6.37154 52.2055 8.83794 52.2055H23.6364C24.7668 52.2055 25.7945 53.1304 25.7945 54.3636V69.1621C25.7945 71.6285 26.8221 73.7866 28.3636 75.4308C30.0079 77.0751 32.166 78 34.6324 78H43.3676C45.834 78 47.9921 76.9723 49.6364 75.4308C51.2806 73.7866 52.2055 71.6285 52.2055 69.1621V54.2609C52.2055 53.1304 53.1304 52.1028 54.3636 52.1028H69.1621C71.6285 52.1028 73.7866 51.0751 75.4308 49.5336C77.0751 47.8893 78 45.7312 78 43.2648V34.5296C78 32.0632 76.9723 29.9051 75.4308 28.2609Z" fill="#FA9A0E"/>
</svg>
