<svg width="65" height="78" viewBox="0 0 65 78" fill="none" xmlns="http://www.w3.org/2000/svg">
<path d="M39.3647 41.751C56.7319 29.3796 62.3761 20.8755 62.3761 12.4931C62.3759 5.59345 56.7826 0 49.8828 0C45.4671 0 41.5866 2.29095 39.3647 5.74915C37.1428 2.29095 33.2623 0 28.8466 0C21.9468 0 16.3533 5.59345 16.3533 12.4933C16.3533 20.8755 21.9975 29.3796 39.3647 41.751Z" fill="#C4C4C4"/>
<path d="M62.2822 56.8839C60.4974 55.0991 57.6036 55.0991 55.8189 56.8839L48.2795 64.4233C47.4224 65.2804 46.2599 65.7619 45.0479 65.7619H31.0527V61.1916H42.3448C44.869 61.1916 46.9151 59.1455 46.9151 56.6213V53.7673H29.2571C27.6101 52.746 25.6684 52.155 23.588 52.155C18.519 52.155 14.2702 55.656 13.1213 60.3712L25.9363 73.1862H44.3657C48.0021 73.1862 51.4894 71.7417 54.0608 69.1705L64.3148 58.9165L62.2822 56.8839Z" fill="#C4C4C4"/>
<path d="M0 70.0097V78H23.2591L23.7729 77.4861L8.14826 61.8615L0 70.0097Z" fill="#C4C4C4"/>
</svg>
