<svg width="79" height="78" viewBox="0 0 79 78" fill="none" xmlns="http://www.w3.org/2000/svg">
<path d="M45.4366 57.5553C41.8905 60.9844 36.1179 60.9844 32.5717 57.5553C31.6064 56.6289 30.0625 56.6452 29.1231 57.6203C28.187 58.5889 28.2163 60.1295 29.1849 61.0689C31.8924 63.6822 35.4483 64.9856 39.0042 64.9856C42.5601 64.9856 46.1159 63.6822 48.8235 61.0689C49.7921 60.1328 49.8181 58.5889 48.8852 57.6203C47.9524 56.6452 46.4052 56.6289 45.4366 57.5553Z" fill="#C4C4C4"/>
<path d="M71.5077 36.324V26.1895C71.5077 19.4872 69.0504 13.5488 64.3991 9.01786C58.3568 3.12823 48.8332 -0.18388 38.9424 0.00789093C26.2563 0.323175 22.4047 5.14669 21.2345 8.11101C15.2864 8.97235 6.5007 13.4676 6.5007 26.248V36.324C2.68479 37.6859 0 41.2971 0 45.4965C0 50.8141 4.28396 55.1371 9.57878 55.2313C10.2809 56.7135 11.568 58.9822 11.6655 59.1512C17.6851 68.9413 25.1674 78 39.0042 78C53.1724 78 60.398 68.4635 66.0926 59.4633C66.1576 59.3528 67.604 56.902 68.4101 55.2313C73.7147 55.1468 78.0084 50.8206 78.0084 45.4965C78.0084 41.2971 75.3236 37.6859 71.5077 36.324ZM64.1424 52.8651C63.6353 53.9929 62.3514 56.2162 61.9354 56.9182C55.6037 66.9228 49.5581 73.1245 39.0042 73.1245C28.1968 73.1245 21.9203 66.5165 15.8584 56.668C15.8584 56.668 14.4445 54.188 13.879 52.9301C12.8064 50.4566 12.114 47.8823 11.7305 45.256L15.3221 33.8993C17.1033 33.0704 24.8847 29.0465 26.5131 21.5545C29.1719 26.2155 36.1471 35.7455 48.7552 35.7455C49.064 35.7455 49.3468 35.57 49.4833 35.2937C49.6198 35.0174 49.5906 34.6859 49.4053 34.4421C46.8213 31.0162 46.2557 27.041 46.1972 24.5383C48.5212 27.9576 53.4162 34.1203 58.5063 34.1203C59.7479 34.1203 60.2615 34.0975 60.7913 34.0715C61.2658 34.0488 61.7534 34.026 62.8162 34.0195L66.2844 45.152C65.9008 47.7945 65.2085 50.3818 64.1424 52.8651Z" fill="#C4C4C4"/>
<path d="M26.0028 48.7469C28.6955 48.7469 30.8783 46.564 30.8783 43.8714C30.8783 41.1787 28.6955 38.9958 26.0028 38.9958C23.3101 38.9958 21.1273 41.1787 21.1273 43.8714C21.1273 46.564 23.3101 48.7469 26.0028 48.7469Z" fill="#C4C4C4"/>
<path d="M52.0056 48.7469C54.6983 48.7469 56.8811 46.564 56.8811 43.8714C56.8811 41.1787 54.6983 38.9958 52.0056 38.9958C49.3129 38.9958 47.1301 41.1787 47.1301 43.8714C47.1301 46.564 49.3129 48.7469 52.0056 48.7469Z" fill="#C4C4C4"/>
</svg>
