<svg width="78" height="78" viewBox="0 0 78 78" fill="none" xmlns="http://www.w3.org/2000/svg">
<path d="M77.755 34.6707C77.6319 33.5744 76.3531 32.7497 75.2473 32.7497C71.6737 32.7497 68.5021 30.6522 67.172 27.4057C65.8143 24.0814 66.6903 20.2051 69.3529 17.7626C70.1915 16.9958 70.2937 15.712 69.5907 14.8207C67.761 12.4979 65.6824 10.3994 63.4122 8.58086C62.524 7.86843 61.2189 7.9676 60.4481 8.8207C58.1236 11.3952 53.9478 12.3518 50.721 11.0056C47.3642 9.59318 45.2455 6.19056 45.4536 2.53833C45.5221 1.3904 44.6828 0.392927 43.5389 0.259683C40.6254 -0.0776443 37.6863 -0.0874268 34.7644 0.236744C33.635 0.361555 32.7964 1.33542 32.8339 2.46884C32.9604 6.08532 30.8176 9.42789 27.4933 10.7897C24.3052 12.0921 20.1585 11.1425 17.8387 8.59064C17.0719 7.75003 15.7897 7.6468 14.8955 8.34406C12.5585 10.1781 10.433 12.278 8.58646 14.5819C7.86694 15.4775 7.9732 16.7755 8.81888 17.545C11.534 20.0038 12.4094 23.9134 10.9997 27.2765C9.65376 30.4828 6.32468 32.5483 2.5139 32.5483C1.27726 32.5085 0.397175 33.3393 0.260558 34.464C-0.0821663 37.393 -0.0858769 40.379 0.244029 43.3319C0.367153 44.433 1.68374 45.2507 2.80164 45.2507C6.19852 45.1643 9.45778 47.2658 10.827 50.5942C12.1894 53.9186 11.3124 57.7931 8.64549 60.2391C7.81128 61.0058 7.70469 62.2867 8.40903 63.1769C10.2201 65.4852 12.3008 67.5851 14.5777 69.4191C15.4716 70.139 16.7717 70.0381 17.5465 69.184C19.8802 66.6034 24.0553 65.6485 27.269 66.9974C30.6355 68.4061 32.7532 71.8084 32.5465 75.4616C32.4786 76.6096 33.3199 77.6101 34.4598 77.7403C35.9508 77.9147 37.4495 78.001 38.953 78.001C40.3799 78.001 41.8071 77.9231 43.2343 77.7642C44.365 77.6394 45.2023 76.6646 45.1642 75.5308C45.0336 71.916 47.181 68.5731 50.5014 67.214C53.7107 65.9032 57.8389 66.8625 60.16 69.4107C60.9308 70.2496 62.2052 70.3515 63.1032 69.6569C65.4362 67.8276 67.5576 65.7288 69.4122 63.4187C70.1324 62.5248 70.0302 61.2251 69.1798 60.4543C66.4653 57.9972 65.5853 54.0859 66.9949 50.7261C68.32 47.563 71.5252 45.4392 74.9727 45.4392L75.4551 45.452C76.5744 45.5428 77.6029 44.6809 77.7381 43.5391C78.0825 40.6074 78.0863 37.6247 77.755 34.6707ZM38.9999 61.4849C26.5818 61.4849 16.5157 51.4187 16.5157 39.001C16.5157 26.5833 26.5822 16.5172 38.9999 16.5172C51.4175 16.5172 61.484 26.5833 61.484 39.001C61.484 43.2159 60.3219 47.1582 58.3037 50.5295L48.4585 40.6839C49.1713 39.0034 49.5477 37.1815 49.5474 35.3012C49.5474 31.6193 48.1134 28.158 45.5096 25.5548C42.9064 22.9517 39.4451 21.518 35.7639 21.518C34.5353 21.518 33.3125 21.6813 32.1295 22.0034C31.6114 22.1448 31.1877 22.5718 31.0497 23.091C30.9087 23.6219 31.0676 24.166 31.4825 24.5813C31.4825 24.5813 36.3431 29.4793 37.9693 31.1052C38.1397 31.2755 38.1393 31.682 38.1154 31.8284L38.1002 31.9354C37.9363 33.7232 37.6202 35.8693 37.3594 36.694C37.3243 36.7288 37.2913 36.7581 37.2555 36.7939C37.2181 36.8313 37.1837 36.8674 37.1476 36.9045C36.312 37.1727 34.1329 37.4925 32.3167 37.6551L32.3171 37.6453L32.2354 37.6659C32.2209 37.6675 32.1939 37.6696 32.1582 37.6696C31.9619 37.6696 31.6731 37.6146 31.4107 37.3525C29.718 35.6598 25.048 31.0232 25.048 31.0232C24.6291 30.6056 24.1993 30.5179 23.9129 30.5179C23.2453 30.5179 22.6476 31.0003 22.4594 31.6921C21.1738 36.4495 22.5366 41.5667 26.0168 45.0472C28.6206 47.6507 32.0823 49.0844 35.7642 49.0844C37.6445 49.0844 39.4664 48.7083 41.1466 47.9955L51.0988 57.9476C47.6047 60.1834 43.4556 61.4849 38.9999 61.4849Z" fill="#FA9A0E"/>
</svg>
