<svg width="108" height="93" viewBox="0 0 108 93" fill="none" xmlns="http://www.w3.org/2000/svg">
<path d="M108 65.9631C108 61.8435 105.347 58.3643 101.672 57.0537V24.2753L108 21.6662L54 0L0 21.6662L54 43.3327L95.3438 26.8163V57.0537C91.6688 58.3643 89.0156 61.8435 89.0156 65.9631C89.0156 69.7347 91.2431 72.9721 94.4369 74.5021L89.1795 90.2745L95.1801 92.2767L98.5078 82.2933L101.836 92.2767L107.836 90.2745L102.579 74.5021C105.772 72.9724 108 69.7349 108 65.9631Z" fill="#333333"/>
<path d="M54 50.152L25.5234 38.7175V46.9787C25.5234 55.9982 37.7656 62.799 54 62.799C70.2344 62.799 82.4766 55.9982 82.4766 46.9787V38.7175L54 50.152Z" fill="#333333"/>
</svg>
