<svg width="150" height="139" viewBox="0 0 150 139" fill="none" xmlns="http://www.w3.org/2000/svg">
<path d="M40.5239 95.5934C38.4541 93.4395 34.8296 93.1718 32.4639 94.9681L32.4018 94.9279L27.048 100.282C25.8741 101.452 25.2304 103.013 25.2304 104.674C25.1599 108.017 28.1037 110.955 31.4436 110.887C33.3881 110.918 35.1196 109.946 36.3879 108.517L40.5239 104.381C41.3906 103.514 41.9721 102.436 42.2134 101.262C42.6468 99.2314 42.0061 97.054 40.5239 95.5934Z" fill="#FA9A0E"/>
<path d="M25.6322 77.3927C23.2087 74.9689 19.2709 74.9714 16.8445 77.3927C16.2806 77.9596 12.8035 81.4344 12.1599 82.081C6.57095 88.1464 14.8752 96.454 20.944 90.8687C20.944 90.8687 25.0098 86.8025 25.6322 86.1805C28.0572 83.7595 28.0572 79.8173 25.6322 77.3927Z" fill="#FA9A0E"/>
<path d="M53.2283 109.764C51.568 109.764 50.0065 110.411 48.8326 111.585L44.1443 116.274C44.1224 116.296 44.1005 116.318 44.0785 116.343C41.7293 118.664 41.7644 122.774 44.1443 125.061C46.5689 127.482 50.5111 127.482 52.9321 125.061L57.624 120.369C61.5099 116.493 58.7167 109.743 53.2283 109.764Z" fill="#FA9A0E"/>
<path d="M94.9251 40.7973C85.3328 46.846 72.4712 45.6977 64.1224 37.3488L53.2538 26.4839L66.8176 12.9202C52.2492 -3.42838 26.6321 -4.4655 11.125 11.1469C-4.46614 26.632 -3.46668 52.2188 12.8475 66.7915C24.7283 60.1511 39.3383 69.426 38.3769 82.9554C46.2438 83.8056 52.9038 90.936 53.2644 98.8047C60.6621 98.6464 68.0105 104.187 69.8123 111.494C75.971 109.844 82.8735 111.889 87.0915 116.768L87.2158 116.622C93.3307 120.293 99.7999 112.752 95.188 107.26L95.199 107.245C95.1039 107.154 70.5034 82.5531 70.5034 82.5531C72.4365 80.62 76.3272 76.7293 78.2599 74.7966L102.674 99.2106C108.739 104.799 117.048 96.4887 111.458 90.4229L87.0476 66.0089C88.9807 64.0758 92.8714 60.1852 94.8041 58.2524C100.291 63.739 113.602 77.0512 119.218 82.6665C121.53 85.0749 125.693 85.0738 128.006 82.6665C130.427 80.2419 130.427 76.2996 128.006 73.8787L94.9251 40.7973Z" fill="#FA9A0E"/>
<path d="M138.023 11.1465C123.157 -3.71549 98.9697 -3.71549 84.1041 11.1465C81.2136 14.0388 71.5003 23.7543 68.7704 26.4839L71.8788 29.5923C77.2838 34.9973 86.0752 34.9973 91.4766 29.5923L95.3566 25.7122C97.4195 27.7978 135.287 65.6007 136.351 66.7399C152.626 52.1617 153.591 26.6115 138.023 11.1465Z" fill="#FA9A0E"/>
<path d="M78.5784 123.719C76.1535 121.298 72.2142 121.295 69.7907 123.719L65.1024 128.408C62.6899 130.72 62.691 134.882 65.1024 137.195C67.4184 139.602 71.5756 139.601 73.8902 137.195L78.5784 132.507C80.9858 130.197 80.9858 126.024 78.5784 123.719Z" fill="#FA9A0E"/>
</svg>
