<svg width="108" height="80" viewBox="0 0 108 80" fill="none" xmlns="http://www.w3.org/2000/svg">
<path d="M108 37.8281V27.2109C108 19.6507 101.849 13.5 94.2891 13.5H81.914V0H26.086V13.5H13.7109C6.15073 13.5 0 19.6507 0 27.2109V37.8281H21.7531L46.9249 50.4138L31.1972 58.2776C28.8828 55.8267 25.6076 54.2926 21.9786 54.2926C14.9837 54.2926 9.29306 59.9835 9.29306 66.9781C9.29306 73.973 14.9839 79.6637 21.9786 79.6637C28.9735 79.6637 34.6642 73.973 34.6642 66.9781C34.6642 65.8876 34.5258 64.8289 34.2657 63.8185L54 53.9515L73.7343 63.8185C73.4742 64.8291 73.3358 65.8878 73.3358 66.9784C73.3358 73.9733 79.0265 79.6639 86.0216 79.6639C93.0163 79.6639 98.7072 73.9733 98.7072 66.9784C98.7072 59.9835 93.0165 54.2928 86.0216 54.2928C82.3926 54.2928 79.1172 55.8269 76.8028 58.2778L61.0751 50.4141L86.2471 37.8281H108ZM54 46.8764L35.9032 37.8281H72.097L54 46.8764ZM75.5859 13.4998H32.4141V6.32791H75.5859V13.4998Z" fill="#333333"/>
</svg>
