<svg width="74" height="108" viewBox="0 0 74 108" fill="none" xmlns="http://www.w3.org/2000/svg">
<path d="M64.8283 18.0702V32.4139H9.00007V18.0702H0V108H73.8281V18.0702H64.8283ZM30.1641 49.8515H33.75V46.2656H40.0781V49.8515H43.6641V56.1796H40.0781V59.7656H33.75V56.1796H30.1641V49.8515ZM54.9142 90.9141H18.9141V84.586H54.9142V90.9141ZM54.9142 78.2578H18.9141V71.9297H54.9142V78.2578Z" fill="#333333"/>
<path d="M50.7393 10.3359C50.0135 7.86776 48.6329 5.6257 46.7104 3.84286C44.0389 1.36477 40.5599 0 36.9141 0C33.2684 0 29.7892 1.36477 27.1177 3.84286C25.1954 5.6257 23.8146 7.86776 23.089 10.3359H15.3282V26.0858H58.5001V10.3359H50.7393Z" fill="#333333"/>
</svg>
