<svg width="108" height="95" viewBox="0 0 108 95" fill="none" xmlns="http://www.w3.org/2000/svg">
<path d="M54 37.9688C45.2767 37.9688 38.1797 45.0657 38.1797 53.7891C38.1797 62.5124 45.2767 69.6094 54 69.6094C62.7233 69.6094 69.8203 62.5124 69.8203 53.7891C69.8203 45.0657 62.7233 37.9688 54 37.9688ZM60.3281 56.9531H57.1641V60.1172C57.1641 61.8646 55.7474 63.2812 54 63.2812C52.2526 63.2812 50.8359 61.8646 50.8359 60.1172V56.9531H47.6719C45.9245 56.9531 44.5078 55.5365 44.5078 53.7891C44.5078 52.0417 45.9245 50.625 47.6719 50.625H50.8359V47.4609C50.8359 45.7135 52.2526 44.2969 54 44.2969C55.7474 44.2969 57.1641 45.7135 57.1641 47.4609V50.625H60.3281C62.0755 50.625 63.4922 52.0417 63.4922 53.7891C63.4922 55.5365 62.0755 56.9531 60.3281 56.9531Z" fill="#333333"/>
<path d="M92.1797 12.6562H76.1484V9.49219C76.1484 4.2582 71.8902 0 66.6562 0H41.3438C36.1098 0 31.8516 4.2582 31.8516 9.49219V12.6562H15.8203C7.09699 12.6562 0 19.7532 0 28.4766V79.1016C0 87.8249 7.09699 94.9219 15.8203 94.9219H92.1797C100.903 94.9219 108 87.8249 108 79.1016V28.4766C108 19.7532 100.903 12.6562 92.1797 12.6562ZM38.1797 9.49219C38.1797 7.74752 39.5991 6.32812 41.3438 6.32812H66.6562C68.4009 6.32812 69.8203 7.74752 69.8203 9.49219V12.6562H38.1797V9.49219ZM54 75.9375C41.7874 75.9375 31.8516 66.0017 31.8516 53.7891C31.8516 41.5764 41.7874 31.6406 54 31.6406C66.2126 31.6406 76.1484 41.5764 76.1484 53.7891C76.1484 66.0017 66.2126 75.9375 54 75.9375Z" fill="#333333"/>
</svg>
