<svg width="90" height="108" viewBox="0 0 90 108" fill="none" xmlns="http://www.w3.org/2000/svg">
<path d="M44.9423 59.021C52.1627 59.021 69.1386 50.3314 69.1386 29.5102C69.1386 26.6059 69.068 23.8004 68.8286 21.1496C68.4356 15.9327 67.3671 11.3092 64.7068 7.76595C61.2943 2.94411 55.324 0 44.9423 0C34.5624 0 28.5924 2.94291 25.1799 7.76326C22.5178 11.3074 21.4487 15.9321 21.056 21.1508C20.8169 23.8013 20.7463 26.6065 20.7463 29.5105C20.746 50.3314 37.722 59.021 44.9423 59.021ZM52.8402 10.8112C52.1357 12.5923 51.7826 13.483 51.0774 15.2637C46.5255 13.9777 43.3585 13.9777 38.8066 15.2637C38.1018 13.483 37.7486 12.5923 37.0435 10.8112C42.7362 9.08791 47.1484 9.08821 52.8402 10.8112ZM24.3455 24.9957C24.6245 25.6054 25.8088 27.9497 27.6419 28.1694C29.7492 28.4223 33.247 20.7066 44.9423 20.6878C56.6373 20.7066 60.1354 28.4223 62.2427 28.1694C64.0759 27.9494 65.2602 25.6054 65.5391 24.9957C65.5957 26.4898 65.6166 28.0024 65.6166 29.5105C65.6166 39.6878 61.1228 45.9939 57.3526 49.4916C52.6026 53.8993 47.3285 55.499 44.9426 55.499C42.5567 55.499 37.2826 53.8993 32.5326 49.4916C28.7621 45.9939 24.2686 39.6878 24.2686 29.5105C24.2683 28.0024 24.289 26.4898 24.3455 24.9957Z" fill="#333333"/>
<path d="M89.8632 89.2861C88.6277 81.6051 86.085 71.7106 80.9839 68.1946C77.5002 65.7925 65.3466 59.2994 60.1567 56.5268L60.069 56.4801C59.4758 56.1631 58.7512 56.2269 58.2227 56.642C55.5039 58.7762 52.526 60.2146 49.3715 60.917C48.8142 61.0412 48.3566 61.4372 48.1546 61.9708L44.9423 70.438L41.7297 61.9708C41.5277 61.4372 41.0704 61.0412 40.5128 60.917C37.3586 60.2146 34.3807 58.7762 31.6622 56.642C31.1325 56.2266 30.4085 56.1631 29.8153 56.4801C24.6873 59.2204 12.385 65.846 8.91626 68.1844C3.04391 72.1401 0.476605 86.4566 0.0213866 89.2864C-0.0235068 89.5671 0.00253148 89.8541 0.0971069 90.1223C0.221611 90.4737 2.1637 95.5041 11.8762 99.5487C12.4362 98.843 13.182 98.3078 14.0209 98.0068C12.9788 97.6368 12.0744 96.9117 11.4958 95.9384C10.6339 94.488 10.6019 92.668 11.4102 91.1922C13.9003 86.6341 18.6692 83.798 23.8619 83.7911C28.6918 83.7911 33.0701 86.1911 35.67 90.0921H54.2038C54.7126 89.3322 55.2962 88.6213 55.951 87.9644C58.6297 85.278 62.1933 83.7959 65.9859 83.7905H65.9889H65.9919C71.1804 83.7905 75.9552 86.611 78.454 91.1536C79.2639 92.6279 79.2366 94.4443 78.3798 95.8995C77.8045 96.8731 76.9025 97.6006 75.8616 97.9738C76.7151 98.2761 77.4726 98.8193 78.0368 99.5373C87.7245 95.4948 89.6636 90.4736 89.7881 90.1229C89.8824 89.8538 89.9084 89.5665 89.8632 89.2861Z" fill="#333333"/>
<path d="M74.2685 101.888H74.2673L65.3377 101.9C65.1794 101.525 64.8753 100.481 64.8723 97.9902C64.8681 95.4996 65.1686 94.4538 65.3266 94.077L74.2538 94.0639C74.4672 94.0627 74.6641 93.9504 74.7722 93.767C74.8808 93.5829 74.8838 93.3566 74.7815 93.1699C73.0201 89.9681 69.6591 87.9796 65.9916 87.9796C63.3178 87.9835 60.8062 89.0286 58.9185 90.9219C57.9459 91.897 57.2036 93.0391 56.7089 94.2814H33.1644C31.6862 90.5957 28.0789 87.9805 23.8619 87.9805C20.2055 87.9856 16.8433 89.9855 15.0873 93.2004C14.985 93.3872 14.9892 93.6143 15.0978 93.7972C15.2065 93.9801 15.4034 94.0917 15.6162 94.0917H15.6168L24.5464 94.0776C24.7053 94.4535 25.0088 95.4975 25.0118 97.9887C25.016 100.48 24.7155 101.525 24.5575 101.901L15.6303 101.915C15.4175 101.915 15.2205 102.028 15.1119 102.211C15.0038 102.394 15.0003 102.621 15.1032 102.808C16.8639 106.01 20.2261 108 23.8778 108H23.8924C26.5669 107.995 29.0779 106.95 30.9661 105.057C31.9388 104.081 32.6808 102.939 33.1752 101.696H56.7191C58.1975 105.383 61.8022 107.998 66.0087 107.999C66.0087 107.999 66.0222 107.999 66.0228 107.999C69.6786 107.994 73.0414 105.993 74.7973 102.78C74.8997 102.593 74.8955 102.365 74.7868 102.183C74.6782 102 74.4813 101.888 74.2685 101.888Z" fill="#333333"/>
</svg>
