<svg width="15" height="15" viewBox="0 0 15 15" fill="none" xmlns="http://www.w3.org/2000/svg">
<path d="M10.526 4.82141H4.47412L7.50007 7.4151L10.526 4.82141Z" fill="#333333"/>
<path d="M7.50002 8.03573C7.43607 8.03573 7.37421 8.01284 7.32568 7.97112L4.01788 5.13586V10.1786H10.9822V5.13586L7.67437 7.97112C7.62584 8.01284 7.56398 8.03573 7.50002 8.03573Z" fill="#333333"/>
<path d="M7.5 0C3.35789 0 0 3.35789 0 7.5C0 11.6421 3.35789 15 7.5 15C11.6421 15 15 11.6421 15 7.5C14.9953 3.35985 11.6401 0.00470843 7.5 0ZM11.5179 10.4464C11.5179 10.5944 11.3979 10.7143 11.25 10.7143H3.75C3.60208 10.7143 3.48214 10.5944 3.48214 10.4464V4.55357C3.48214 4.40565 3.60208 4.28571 3.75 4.28571H11.25C11.3979 4.28571 11.5179 4.40565 11.5179 4.55357V10.4464Z" fill="#333333"/>
</svg>
